<svg xmlns="http://www.w3.org/2000/svg" viewBox="0 0 32 32" width="32" height="32">
    <circle cx="16" cy="16" r="16" fill="#2A593E" />
    <path fill="#F28F0F" transform="translate(4, 4) scale(1)" d="M12,2C6.48,2,2,6.48,2,12s4.48,10,10,10s10-4.48,10-10S17.52,2,12,2z M12.8,17.4c-0.2,0.2-0.5,0.2-0.7,0l-3.3-3.3 c-0.2-0.2-0.2-0.5,0-0.7l3.3-3.3c0.2-0.2,0.5-0.2,0.7,0s0.2,0.5,0,0.7L10.2,13.3l2.6,2.6C13,16.9,13,17.2,12.8,17.4z M17,14h-3 c-0.6,0-1-0.4-1-1v-2c0-0.6,0.4-1,1-1h3c0.6,0,1,0.4,1,1v2C18,13.6,17.6,14,17,14z"/>
</svg>
